# AST/ASF file generated using VICON BodyLanguage
# -----------------------------------------------
:version 1.10
:name VICON
:units
  mass 1.0
  length 0.45
  angle deg
:documentation
   .ast/.asf automatically generated from VICON data using
   VICON BodyBuilder and BodyLanguage model FoxedUp or BRILLIANT.MOD
:root
   order TX TY TZ RX RY RZ
   axis XYZ
   position 0 0 0  
   orientation 0 0 0 
:bonedata
  begin
     id 1 
     name lhipjoint
     direction 0.576517 -0.752066 0.319413 
     length 2.45433 
     axis 0 0 0  XYZ
  end
  begin
     id 2 
     name lfemur
     direction 0.34202 -0.939693 0  
     length 7.54459  
     axis 0 0 20  XYZ
    dof rx ry rz
    limits (-160.0 20.0)
           (-70.0 70.0)
           (-60.0 70.0)
  end
  begin
     id 3 
     name ltibia
     direction 0.34202 -0.939693 0   
     length 7.73986   
     axis 0 0 20   XYZ
    dof rx
    limits (-10.0 170.0)
  end
  begin
     id 4 
     name lfoot
     direction 0.090693 -0.249177 0.964202   
     length 2.28437   
     axis -90 7.62852e-016 20   XYZ
    dof rx rz
    limits (-45.0 90.0)
           (-70.0 20.0)
  end
  begin
     id 5 
     name ltoes
     direction 1.5356e-011 -4.21928e-011 1   
     length 1.14243   
     axis -90 7.62852e-016 20   XYZ
    dof rx
    limits (-90.0 20.0)
  end
  begin
     id 6 
     name rhipjoint
     direction -0.573937 -0.753736 0.320122   
     length 2.44889  
     axis 0 0 0  XYZ 
  end
  begin
     id 7 
     name rfemur
     direction -0.34202 -0.939693 0   
     length 7.50166   
     axis 0 0 -20   XYZ
    dof rx ry rz
    limits (-160.0 20.0)
           (-70.0 70.0)
           (-70.0 60.0)
  end
  begin
     id 8 
     name rtibia
     direction -0.34202 -0.939693 0   
     length 7.54266   
     axis 0 0 -20   XYZ
    dof rx
    limits (-10.0 170.0)
 end
 begin
     id 9 
     name rfoot
     direction -0.114017 -0.31326 0.942798   
     length 2.34212  
     axis -90 -7.62852e-016 -20   XYZ
    dof rx rz
    limits (-45.0 90.0)
           (-20.0 70.0)
  end
  begin
     id 10 
     name rtoes
     direction -1.53557e-011 -4.21867e-011 1   
     length 1.16246   
     axis -90 -7.62852e-016 -20   XYZ
    dof rx
    limits (-90.0 20.0)
  end
  begin
     id 11 
     name lowerback
     direction -0.0228371 0.999155 -0.034167   
     length 2.0537   
     axis 0 0 0   XYZ
    dof rx ry rz
    limits (-20.0 45.0)
           (-30.0 30.0)
           (-30.0 30.0)
  end
  begin
     id 12 
     name upperback
     direction 0.0198981 0.999794 0.00389455   
     length 2.05302   
     axis 0 0 0   XYZ
    dof rx ry rz
    limits (-20.0 45.0)
           (-30.0 30.0)
           (-30.0 30.0)
  end
  begin
     id 13 
     name thorax
     direction 0.0304566 0.99935 0.0192987   
     length 2.05315   
     axis 0 0 0   XYZ
    dof rx ry rz
    limits (-20.0 45.0)
           (-30.0 30.0)
           (-30.0 30.0)
  end
  begin
     id 14 
     name lowerneck
     direction -0.0196762 0.99417 0.106017   
     length 1.82056   
     axis 0 0 0   XYZ
    dof rx ry rz
    limits (-20.0 45.0)
           (-30.0 30.0)
           (-30.0 30.0)
  end
  begin
     id 15 
     name upperneck
     direction 0.00517787 0.9802 -0.197944   
     length 1.83835   
     axis 0 0 0   XYZ
    dof rx ry rz
    limits (-20.0 45.0)
           (-30.0 30.0)
           (-30.0 30.0)
  end
  begin
     id 16
     name head
     direction 0.00211419 0.996945 -0.078081  
     length 1.85629  
     axis 0 0 0   XYZ
    dof rx ry rz
    limits (-20.0 45.0)
           (-30.0 30.0)
           (-30.0 30.0)
  end
  begin
     id 17 
     name lclavicle
     direction 0.930001 0.365811 -0.0357824  
     length 3.81961  
     axis 0 0 0   XYZ
    dof ry rz
    limits (-20.0 10.0)
           (0.0 20.0)
  end
  begin
     id 18 
     name lhumerus
     direction 1 -4.48968e-011 -3.06644e-027   
     length 5.14507   
     axis 180 -30 -90   XYZ
    dof rx ry rz
    limits (-60.0 90.0)
           (-90.0 90.0)
           (-90.0 90.0)
  end
  begin
     id 19
     name lradius
     direction 1 -4.48965e-011 9.06925e-028   
     length 3.50646   
     axis 180 -30 -90   XYZ
    dof rx
    limits (-10.0 170.0)
  end
  begin
     id 20
     name lwrist
     direction 1 -4.48957e-011 1.03922e-027   
     length 1.75323   
     axis -2.56395e-016 90 90   XYZ
    dof ry
    limits (-180.0 0.0)
 end
  begin
     id 21 
     name lhand
     direction 1 -4.48967e-011 2.08017e-027   
     length 0.629969   
     axis -1.32723e-015 90 90   XYZ
    dof rx rz
    limits (-90.0 90.0)
           (-45.0 45.0)
  end
  begin
     id 22 
     name lfingers
     direction 1 -4.49089e-011 4.20095e-027   
     length 0.507897   
     axis -2.6545e-015 90 90   XYZ
    dof rx
    limits (0.0 90.0)
  end
  begin
     id 23
     name lthumb
     direction 0.707107 -6.35001e-011 0.707107   
     length 0.729241   
     axis -90 45 5.05613e-014   XYZ
    dof rx rz
    limits (-45.0 45.0)
           (-45.0 45.0)
  end
  begin
     id 24 
     name rclavicle
     direction -0.881882 0.464123 -0.0829113   
     length 3.47515  
     axis 0 0 0   XYZ 
    dof ry rz
    limits (-10.0 20.0)
           (-20.0 0.0)
  end
  begin
     id 25 
     name rhumerus
     direction -1 -4.48961e-011 -1.55672e-027  
     length 5.232   
     axis 180 30 90   XYZ
    dof rx ry rz
    limits (-90.0 60.0)
           (-90.0 90.0)
           (-90.0 90.0)
  end
  begin
     id 26 
     name rradius
     direction -1 -4.48963e-011 6.18178e-029   
     length 3.65641   
     axis 180 30 90   XYZ
    dof rx
    limits (-10.0 170.0)
  end
  begin
     id 27 
     name rwrist
     direction -1 -4.48982e-011 1.04136e-027   
     length 1.8282   
     axis -2.56395e-016 -90 -90   XYZ
    dof ry
    limits (-180.0 0.0)
  end
  begin
     id 28
     name rhand
     direction -1 -4.48929e-011 2.07378e-027   
     length 0.656807   
     axis -1.32723e-015 -90 -90   XYZ
    dof rx rz
    limits (-90.0 90.0)
           (-45.0 45.0)
  end
  begin
     id 29
     name rfingers
     direction -1 -4.489e-011 4.13816e-027   
     length 0.529535   
     axis -2.6545e-015 -90 -90   XYZ
    dof rx
    limits (0.0 90.0)
  end
  begin
     id 30
     name rthumb
     direction -0.707107 -6.34843e-011 0.707107   
     length 0.760309   
     axis -90 -45 -5.05613e-014   XYZ
    dof rx rz
    limits (-45.0 45.0)
           (-45.0 45.0)
  end
:hierarchy
  begin
    root lhipjoint rhipjoint lowerback
    lhipjoint lfemur
    lfemur ltibia
    ltibia lfoot
    lfoot ltoes
    rhipjoint rfemur
    rfemur rtibia
    rtibia rfoot
    rfoot rtoes
    lowerback upperback
    upperback thorax
    thorax lowerneck lclavicle rclavicle
    lowerneck upperneck
    upperneck head
    lclavicle lhumerus
    lhumerus lradius
    lradius lwrist
    lwrist lhand lthumb
    lhand lfingers
    rclavicle rhumerus
    rhumerus rradius
    rradius rwrist
    rwrist rhand rthumb
    rhand rfingers
  end

#!OML:ASF H:\ManfredETheater\Project 1\Capture day 1\Session 1\subject.ASF
:FULLY-SPECIFIED
:DEGREES
1
root 14.6921 16.419 -44.3007 26.257 7.21843 0.876017
lowerback 15.3085 0.223882 3.96155
upperback 0.18426 1.03669 0.449657
thorax -8.3511 0.348133 -1.9927
lowerneck -16.0071 -6.40614 -4.7821
upperneck -3.13984 -7.79666 5.05577
head 2.1775 -3.70712 1.94285
rclavicle 2.50469e-014 9.14409e-015
rhumerus -37.807 14.0149 -86.7039
rradius 101.098
rwrist -11.4797
rhand -19.3203 7.46088
rfingers 7.12502
rthumb 6.99599 -22.4035
lclavicle 2.50469e-014 9.14409e-015
lhumerus -75.1799 -2.88798 90.8454
lradius 99.1474
lwrist 16.1861
lhand -22.5785 -10.158
lfingers 7.12502
lthumb 3.85013 19.787
rfemur -5.21692 1.30674 30.2511
rtibia 57.7779
rfoot 21.9034 -2.26523
rtoes -20.6678
lfemur -70.6526 6.56226 -23.7131
ltibia 69.0948
lfoot -14.7506 -15.4418
ltoes -1.86171
2
root 14.6751 16.391 -43.802 25.9144 7.61753 2.37728
lowerback 15.7231 -0.00236039 2.97134
upperback 0.257384 0.537202 -0.00649133
thorax -8.53862 0.136042 -1.8151
lowerneck -15.8013 -6.49526 -4.82824
upperneck -3.2535 -7.9201 5.31145
head 2.12522 -3.7636 2.03213
rclavicle -1.98785e-014 -1.74931e-014
rhumerus -39.3574 11.7052 -87.5696
rradius 96.7451
rwrist -12.4745
rhand -19.4718 6.99354
rfingers 7.12502
rthumb 6.84972 -22.8757
lclavicle -1.98785e-014 -1.74931e-014
lhumerus -72.5456 -3.11329 91.8439
lradius 98.6575
lwrist 15.884
lhand -22.2675 -10.2485
lfingers 7.12502
lthumb 4.15049 19.6908
rfemur -7.84289 -0.189527 28.8821
rtibia 63.4244
rfoot 18.7977 -2.61819
rtoes -18.328
lfemur -67.4517 5.82609 -24.9088
ltibia 68.7305
lfoot -17.4858 -13.4069
ltoes 0.537051
3
root 14.6607 16.3489 -43.3127 25.6857 7.99618 3.68206
lowerback 16.1269 -0.246478 2.13
upperback 0.253026 0.0417177 -0.356588
thorax -8.79594 -0.0777502 -1.60341
lowerneck -15.7952 -6.50171 -5.05293
upperneck -3.19946 -7.898 5.56522
head 2.16822 -3.74221 2.15824
rclavicle 4.45278e-014 -1.66979e-014
rhumerus -40.755 9.38145 -88.1906
rradius 92.1468
rwrist -13.2858
rhand -19.4737 6.45259
rfingers 7.12502
rthumb 6.84791 -23.4167
lclavicle 4.45278e-014 -1.66979e-014
lhumerus -69.7934 -3.26508 92.9681
lradius 98.0711
lwrist 15.7811
lhand -22.4961 -10.2371
lfingers 7.12502
lthumb 3.92976 19.7064
rfemur -10.7344 -1.59208 27.6311
rtibia 69.038
rfoot 16.4688 -1.91098
rtoes -17.0737
lfemur -64.624 5.29517 -26.03
ltibia 68.4241
lfoot -20.6214 -12.7152
ltoes 2.95397
4
root 14.6446 16.2941 -42.8371 25.4715 8.65479 5.19122
lowerback 16.6367 -0.611838 1.25717
upperback 0.27991 -0.625845 -0.688294
thorax -9.07624 -0.368942 -1.30699
lowerneck -15.7343 -6.49359 -5.26005
upperneck -3.26137 -7.8576 5.77961
head 2.15745 -3.7147 2.27251
rclavicle 3.97569e-015 -3.57812e-015
rhumerus -41.8779 6.85245 -88.4839
rradius 87.3582
rwrist -13.9193
rhand -20.0048 6.05217
rfingers 7.12502
rthumb 6.33522 -23.8331
lclavicle 3.97569e-015 -3.57812e-015
lhumerus -66.8798 -3.54935 94.1129
lradius 97.453
lwrist 15.9521
lhand -22.8824 -10.2126
lfingers 7.12502
lthumb 3.55669 19.7374
rfemur -13.7408 -3.25493 26.3133
rtibia 74.3863
rfoot 13.586 -1.50511
rtoes -18.3916
lfemur -61.8143 4.47793 -27.1675
ltibia 68.1419
lfoot -23.3193 -11.4288
ltoes 3.47
5
root 14.6331 16.2901 -42.346 25.6191 8.70551 6.82377
lowerback 16.7094 -0.854959 -0.147889
upperback 0.30903 -1.24097 -0.970201
thorax -9.08126 -0.607079 -0.663824
lowerneck -15.8516 -6.38439 -5.19556
upperneck -3.39411 -7.70783 5.58611
head 2.1099 -3.64536 2.20673
rclavicle 2.3059e-014 2.94201e-014
rhumerus -43.0523 4.9775 -88.3937
rradius 82.603
rwrist -13.9032
rhand -20.9592 6.60022
rfingers 7.12502
rthumb 5.41374 -23.3106
lclavicle 2.3059e-014 2.94201e-014
lhumerus -63.3276 -3.61593 95.3997
lradius 96.7748
lwrist 16.8168
lhand -22.5474 -10.2849
lfingers 7.12502
lthumb 3.88015 19.6595
rfemur -17.676 -4.47891 24.4061
rtibia 79.3915
rfoot 10.9139 -1.21646
rtoes -22.2279
lfemur -59.1543 3.63647 -28.1345
ltibia 67.7649
lfoot -25.1972 -10.6792
ltoes 1.53659
6
root 14.6218 16.2398 -41.8739 25.689 9.05039 8.23321
lowerback 16.9235 -1.13041 -1.12478
upperback 0.29759 -1.82089 -1.24531
thorax -9.20052 -0.846002 -0.262193
lowerneck -15.8318 -6.34698 -5.31337
upperneck -3.51515 -7.63675 5.67785
head 2.07231 -3.60681 2.26593
rclavicle 2.5842e-014 2.5842e-014
rhumerus -44.358 2.7195 -88.0468
rradius 78.204
rwrist -14.0931
rhand -21.5215 6.565
rfingers 7.12502
rthumb 4.87082 -23.359
lclavicle 2.5842e-014 2.5842e-014
lhumerus -60.0967 -4.05347 96.5717
lradius 96.296
lwrist 17.3182
lhand -22.3937 -10.4069
lfingers 7.12502
lthumb 4.02858 19.5348
rfemur -21.2255 -5.95136 22.9042
rtibia 84.2429
rfoot 8.41924 -0.966652
rtoes -23.4144
lfemur -56.5894 2.75415 -28.9334
ltibia 67.3859
lfoot -27.3453 -9.8263
ltoes 1.33398
7
root 14.6121 16.1867 -41.4079 25.8469 9.38239 9.53204
lowerback 17.0735 -1.40199 -1.98711
upperback 0.261757 -2.37313 -1.47398
thorax -9.29951 -1.07432 0.11822
lowerneck -15.8146 -6.3152 -5.45853
upperneck -3.65217 -7.56813 5.78291
head 2.03189 -3.56888 2.33449
rclavicle 2.10712e-014 3.10104e-014
rhumerus -45.7984 0.624487 -87.4265
rradius 74.0985
rwrist -14.2801
rhand -22.1603 6.52559
rfingers 7.12502
rthumb 4.25397 -23.4117
lclavicle 2.10712e-014 3.10104e-014
lhumerus -56.7809 -4.64508 97.7386
lradius 95.9976
lwrist 17.8165
lhand -22.196 -10.5749
lfingers 7.12502
lthumb 4.2195 19.3631
rfemur -25.0545 -7.39631 21.4907
rtibia 88.7996
rfoot 6.07939 -0.783694
rtoes -24.5324
lfemur -54.167 1.82857 -29.5421
ltibia 66.955
lfoot -29.3007 -9.25615
ltoes 1.07108
8
root 14.6036 16.1309 -40.9468 26.0626 9.69946 10.6985
lowerback 17.1702 -1.66028 -2.70459
upperback 0.206031 -2.87799 -1.66343
thorax -9.38447 -1.28462 0.446623
lowerneck -15.7797 -6.30536 -5.62812
upperneck -3.80643 -7.52559 5.91605
head 1.98662 -3.54329 2.41549
rclavicle 4.21423e-014 2.42517e-014
rhumerus -47.4379 -1.2254 -86.5962
rradius 70.4123
rwrist -14.5785
rhand -22.8715 6.47179
rfingers 7.12502
rthumb 3.56724 -23.4781
lclavicle 4.21423e-014 2.42517e-014
lhumerus -53.4285 -5.42047 98.8798
lradius 95.9661
lwrist 18.145
lhand -21.9358 -10.7599
lfingers 7.12502
lthumb 4.47079 19.1729
rfemur -29.1384 -8.7877 20.2133
rtibia 93.0422
rfoot 3.84494 -0.71771
rtoes -25.3516
lfemur -51.8604 0.891602 -29.9641
ltibia 66.4975
lfoot -31.088 -8.89093
ltoes 0.861317
9
root 14.5955 16.0733 -40.4885 26.3057 9.99939 11.7181
lowerback 17.2237 -1.90194 -3.26022
upperback 0.135751 -3.32675 -1.81868
thorax -9.46079 -1.47404 0.705463
lowerneck -15.7388 -6.32874 -5.82285
upperneck -3.95709 -7.52423 6.08073
head 1.94696 -3.53723 2.5087
rclavicle -1.59028e-014 9.14409e-015
rhumerus -49.3105 -2.73462 -85.6497
rradius 67.2654
rwrist -15.1563
rhand -23.5555 6.45667
rfingers 7.12502
rthumb 2.90664 -23.5033
lclavicle -1.59028e-014 9.14409e-015
lhumerus -50.1019 -6.37745 99.9736
lradius 96.2974
lwrist 18.1927
lhand -21.665 -10.9218
lfingers 7.12502
lthumb 4.73222 19.0054
rfemur -33.4323 -10.0983 19.1133
rtibia 96.876
rfoot 1.77046 -0.747452
rtoes -25.8467
lfemur -49.6229 -0.00576853 -30.2207
ltibia 65.9834
lfoot -32.7257 -8.74219
ltoes 0.82664
10
root 14.5871 16.0157 -40.0305 26.5575 10.2963 12.5933
lowerback 17.2391 -2.13162 -3.64841
upperback 0.0494548 -3.72407 -1.9443
thorax -9.53744 -1.64542 0.887885
lowerneck -15.6668 -6.38743 -6.04526
upperneck -4.10276 -7.56808 6.28518
head 1.9101 -3.55291 2.61772
rclavicle 3.22031e-014 -1.55052e-014
rhumerus -51.4176 -3.83763 -84.6944
rradius 64.7217
rwrist -16.0102
rhand -24.1853 6.5178
rfingers 7.12502
rthumb 2.2984 -23.4496
lclavicle 3.22031e-014 -1.55052e-014
lhumerus -46.867 -7.49341 101.001
lradius 97.0666
lwrist 17.9213
lhand -21.4135 -11.0304
lfingers 7.12502
lthumb 4.97507 18.8912
rfemur -37.8941 -11.3083 18.2246
rtibia 100.228
rfoot -0.158543 -0.881783
rtoes -26.0412
lfemur -47.4093 -0.833516 -30.3385
ltibia 65.379
lfoot -34.2193 -8.7409
ltoes 0.84162
11
root 14.5785 15.9605 -39.569 26.7593 10.5886 13.3197
lowerback 17.2473 -2.35404 -3.86623
upperback -0.0354888 -4.07599 -2.04488
thorax -9.61653 -1.80222 0.989994
lowerneck -15.577 -6.47709 -6.28143
upperneck -4.2265 -7.65342 6.5118
head 1.88255 -3.58893 2.73408
rclavicle 2.5842e-014 3.29983e-014
rhumerus -53.7274 -4.50198 -83.8355
rradius 62.8132
rwrist -17.0456
rhand -24.6747 6.72413
rfingers 7.12502
rthumb 1.82578 -23.2478
lclavicle 2.5842e-014 3.29983e-014
lhumerus -43.7642 -8.72885 101.942
lradius 98.3147
lwrist 17.4148
lhand -21.1956 -11.0789
lfingers 7.12502
lthumb 5.18547 18.8377
rfemur -42.3976 -12.3733 17.5602
rtibia 103.013
rfoot -1.91716 -1.12651
rtoes -26.0679
lfemur -45.1144 -1.54603 -30.337
ltibia 64.6392
lfoot -35.5539 -8.80181
ltoes 0.785451
12
root 14.5687 15.9114 -39.0995 26.9023 10.854 13.9261
lowerback 17.2288 -2.57049 -3.97427
upperback -0.113937 -4.39513 -2.12637
thorax -9.67976 -1.9486 1.04163
lowerneck -15.4836 -6.58799 -6.52073
upperneck -4.30517 -7.76911 6.74775
head 1.87306 -3.63993 2.85192
rclavicle -1.31198e-014 2.26615e-014
rhumerus -56.1872 -4.73925 -83.1574
rradius 61.5155
rwrist -18.0473
rhand -24.9941 7.14312
rfingers 7.12502
rthumb 1.51725 -22.8312
lclavicle -1.31198e-014 2.26615e-014
lhumerus -40.8312 -10.0364 102.776
lradius 100.061
lwrist 16.8739
lhand -21.0049 -11.0535
lfingers 7.12502
lthumb 5.36957 18.8585
rfemur -46.8594 -13.2423 17.0834
rtibia 105.161
rfoot -3.48242 -1.46913
rtoes -25.8002
lfemur -42.6795 -2.12331 -30.258
ltibia 63.7104
lfoot -36.7047 -8.86634
ltoes 0.496679
13
root 14.5574 15.8711 -38.6187 26.9958 11.065 14.4282
lowerback 17.159 -2.78356 -4.01037
upperback -0.190654 -4.69178 -2.19572
thorax -9.71711 -2.08842 1.05768
lowerneck -15.3865 -6.71143 -6.74714
upperneck -4.33215 -7.90641 6.97763
head 1.88173 -3.70216 2.96363
rclavicle 7.95139e-016 -1.98785e-015
rhumerus -58.7433 -4.59526 -82.7161
rradius 60.7713
rwrist -18.8191
rhand -25.1224 7.75961
rfingers 7.12502
rthumb 1.39332 -22.2156
lclavicle 7.95139e-016 -1.98785e-015
lhumerus -38.0985 -11.386 103.478
lradius 102.281
lwrist 16.5328
lhand -20.8207 -10.9733
lfingers 7.12502
lthumb 5.54743 18.9341
rfemur -51.2191 -13.8848 16.7686
rtibia 106.624
rfoot -4.90995 -1.91298
rtoes -25.7192
lfemur -40.0849 -2.56883 -30.1188
ltibia 62.5448
lfoot -37.6142 -8.85744
ltoes -0.374442
